<?xml version="1.0" encoding="iso-8859-1"?>
<!-- Uploaded to: SVG Repo, www.svgrepo.com, Generator: SVG Repo Mixer Tools -->
<svg fill="#000000" height="150px" width="150px" version="1.1" id="Layer_1" xmlns="http://www.w3.org/2000/svg" xmlns:xlink="http://www.w3.org/1999/xlink" 
	 viewBox="0 0 512.035 512.035" xml:space="preserve">
<g transform="translate(1 1)">
	<g>
		<g>
			<path d="M186.768,340.351c-61.44,0-110.933,49.493-110.933,110.933c0,5.12,3.413,8.533,8.533,8.533h204.8
				c5.12,0,8.533-3.413,8.533-8.533C297.701,389.844,248.208,340.351,186.768,340.351z M92.901,442.751
				c5.12-47.787,44.373-85.333,93.867-85.333s89.6,37.547,93.867,85.333H92.901z"/>
			<path d="M365.968,442.751h-17.067c-2.261-45.213-23.449-85.633-55.69-113.648c-0.196-0.239-0.404-0.473-0.63-0.699
				c-0.59-0.59-1.234-1.071-1.909-1.458c-28.262-23.571-64.57-37.796-103.905-37.796c-87.04,0-157.867,68.267-162.133,153.6H7.568
				c-5.12,0-8.533,3.413-8.533,8.533v51.2c0,5.12,3.413,8.533,8.533,8.533h358.4c5.12,0,8.533-3.413,8.533-8.533v-51.2
				C374.501,446.164,371.088,442.751,365.968,442.751z M357.435,493.951h-25.6v-8.533c0-5.12-3.413-8.533-8.533-8.533
				s-8.533,3.413-8.533,8.533v8.533h-51.2v-8.533c0-5.12-3.413-8.533-8.533-8.533s-8.533,3.413-8.533,8.533v8.533h-51.2v-8.533
				c0-5.12-3.413-8.533-8.533-8.533s-8.533,3.413-8.533,8.533v8.533h-51.2v-8.533c0-5.12-3.413-8.533-8.533-8.533
				s-8.533,3.413-8.533,8.533v8.533h-51.2v-8.533c0-5.12-3.413-8.533-8.533-8.533s-8.533,3.413-8.533,8.533v8.533h-25.6v-34.133
				h17.067c5.12,0,8.533-3.413,8.533-8.533c0-41.411,17.286-78.727,45.046-105.14l8.714,8.714c1.707,1.707,3.413,2.56,5.973,2.56
				s4.267-0.853,5.973-2.56c3.413-3.413,3.413-8.533,0-11.947l-7.717-7.717c22.115-16.603,49.146-27.021,78.544-28.721v8.278
				c0,5.12,3.413,8.533,8.533,8.533s8.533-3.413,8.533-8.533v-8.278c29.398,1.7,56.429,12.117,78.544,28.721l-7.717,7.717
				c-3.413,3.413-3.413,8.533,0,11.947c1.707,1.707,3.413,2.56,5.973,2.56c2.56,0,4.267-0.853,5.973-2.56l8.714-8.714
				c27.76,26.413,45.046,63.729,45.046,105.14c0,5.12,3.413,8.533,8.533,8.533h17.067V493.951z"/>
			<path d="M502.501-0.983h-102.4c-5.12,0-8.533,3.413-8.533,8.533v494.933c0,5.12,3.413,8.533,8.533,8.533h102.4
				c5.12,0,8.533-3.413,8.533-8.533V7.551C511.035,2.431,507.621-0.983,502.501-0.983z M493.968,493.951h-85.333v-17.067h42.667
				c5.12,0,8.533-3.413,8.533-8.533s-3.413-8.533-8.533-8.533h-42.667v-25.6h25.6c5.12,0,8.533-3.413,8.533-8.533
				s-3.413-8.533-8.533-8.533h-25.6v-25.6h42.667c5.12,0,8.533-3.413,8.533-8.533s-3.413-8.533-8.533-8.533h-42.667v-25.6h25.6
				c5.12,0,8.533-3.413,8.533-8.533c0-5.12-3.413-8.533-8.533-8.533h-25.6v-25.6h42.667c5.12,0,8.533-3.413,8.533-8.533
				s-3.413-8.533-8.533-8.533h-42.667v-25.6h25.6c5.12,0,8.533-3.413,8.533-8.533c0-5.12-3.413-8.533-8.533-8.533h-25.6v-25.6
				h42.667c5.12,0,8.533-3.413,8.533-8.533c0-5.12-3.413-8.533-8.533-8.533h-42.667v-25.6h25.6c5.12,0,8.533-3.413,8.533-8.533
				s-3.413-8.533-8.533-8.533h-25.6v-25.6h42.667c5.12,0,8.533-3.413,8.533-8.533s-3.413-8.533-8.533-8.533h-42.667v-25.6h25.6
				c5.12,0,8.533-3.413,8.533-8.533c0-5.12-3.413-8.533-8.533-8.533h-25.6V16.084h85.333V493.951z"/>
			<path d="M7.568,340.351c1.707,0,3.413,0,4.267-0.853l147.627-87.04c1.52-0.912,2.598-2.043,3.291-3.31l133.611-135.26
				c1.35-0.391,2.8-1.131,3.899-2.23l29.013-29.867c14.507-14.507,14.507-40.107,0-54.613l-17.067-17.067
				c-14.507-14.507-40.107-14.507-54.613,0l-29.867,29.013c0,0-0.001,0.001-0.001,0.001L90.959,176.732
				c-1.266,0.657-2.313,1.652-3.012,2.897c-0.982,0.888-1.628,2.05-1.947,3.285L-0.112,327.551c-1.707,3.413-0.853,7.68,1.707,10.24
				C3.301,339.497,5.008,340.351,7.568,340.351z M98.469,195.114c11.925,4.981,22.318,12.7,30.648,22.349
				c0.04,0.047,0.08,0.094,0.121,0.141c0.74,0.861,1.456,1.743,2.163,2.633c0.229,0.289,0.458,0.578,0.684,0.871
				c0.514,0.665,1.013,1.342,1.509,2.022c0.322,0.443,0.646,0.883,0.961,1.333c0.388,0.553,0.761,1.117,1.137,1.679
				c0.367,0.55,0.738,1.096,1.094,1.656c0.322,0.506,0.628,1.023,0.94,1.536c0.368,0.604,0.742,1.203,1.098,1.818
				c0.643,1.114,1.268,2.241,1.865,3.385l3.256,6.919l-56.023,33.104l-22.534-23.753L98.469,195.114z M32.315,307.071l24.747-41.813
				l17.067,17.067L32.315,307.071z M157.755,230.271l-1.707-3.413c-9.993-19.986-25.973-35.769-45.91-45.398L231.141,59.604
				c11.947,21.333,28.16,37.547,48.64,48.64L157.755,230.271z M269.541,22.057c8.533-7.68,23.04-7.68,30.72,0l17.067,17.067
				c7.68,8.533,7.68,23.04,0,30.72l-25.157,25.157c-21.303-10.364-37.495-26.392-48.061-47.512L269.541,22.057z"/>
			<path d="M459.835,67.284c9.387,0,17.067-7.68,17.067-17.067s-7.68-17.067-17.067-17.067s-17.067,7.68-17.067,17.067
				S450.448,67.284,459.835,67.284z"/>
		</g>
	</g>
</g>
</svg>