<svg width="150px" height="150px" xmlns="http://www.w3.org/2000/svg" xmlns:xlink="http://www.w3.org/1999/xlink" xmlns:xodm="http://www.corel.com/coreldraw/odm/2003" xml:space="preserve" version="1.1" shape-rendering="geometricPrecision" text-rendering="geometricPrecision" image-rendering="optimizeQuality" fill-rule="evenodd" clip-rule="evenodd" viewBox="0 0 100 125" x="0px" y="0px"><g><g><rect fill="none" width="100" height="100"/><path fill="black" fill-rule="nonzero" d="M18.51 66.54l0 -38.25c0,-2.2 1.8,-4 4,-4l54.98 0c2.19,0 4,1.8 4,4l0 38.25 6.3 0c0.62,0 1.11,0.5 1.11,1.12 0,5.49 -4.7,8.05 -9.68,8.05l-58.69 0c-5.01,0 -9.44,-2.58 -9.44,-8.05 0,-0.62 0.5,-1.12 1.12,-1.12l6.3 0zm24.59 -2.23c0,1.46 -2.23,1.46 -2.23,0 0,-5.04 4.09,-9.13 9.13,-9.13 5.04,0 9.13,4.09 9.13,9.13 0,1.46 -2.23,1.46 -2.23,0 0,-3.82 -3.09,-6.91 -6.9,-6.91 -3.81,0 -6.9,3.09 -6.9,6.91zm-15.11 0.02c0,1.47 -2.23,1.47 -2.23,0l0 -4.84c0,-0.61 0.5,-1.11 1.12,-1.11l3.88 0c0.37,-1.21 0.85,-2.37 1.45,-3.48l-2.75 -2.75c-0.44,-0.44 -0.44,-1.14 0,-1.58l6.8 -6.8c0.44,-0.44 1.15,-0.44 1.58,0l2.75 2.75c1.11,-0.6 2.27,-1.08 3.48,-1.45l0 -3.88c0,-0.62 0.5,-1.12 1.12,-1.12l9.62 0c0.62,0 1.12,0.5 1.12,1.12l0 3.88c1.2,0.37 2.36,0.85 3.48,1.45l2.75 -2.75c0.43,-0.44 1.14,-0.44 1.57,0l6.81 6.8c0.43,0.44 0.43,1.14 0,1.58l-2.75 2.75c0.59,1.11 1.07,2.27 1.45,3.48l3.88 0c0.61,0 1.11,0.5 1.11,1.11l0 4.86c0,1.46 -2.22,1.46 -2.22,0l0 -3.74 -3.59 0c-0.51,0 -0.97,-0.33 -1.1,-0.84 -0.4,-1.54 -1.02,-3.05 -1.82,-4.43 -0.31,-0.43 -0.27,-1.04 0.12,-1.43l2.56 -2.55 -5.24 -5.23 -2.54 2.55c-0.35,0.35 -0.93,0.42 -1.36,0.17 -1.37,-0.8 -2.88,-1.43 -4.42,-1.84 -0.53,-0.1 -0.92,-0.55 -0.92,-1.1l0 -3.61 -7.4 0 0 3.58c0,0.51 -0.33,0.97 -0.84,1.1 -1.54,0.41 -3.05,1.03 -4.42,1.83 -0.44,0.3 -1.05,0.26 -1.43,-0.13l-2.56 -2.55 -5.23 5.23 2.54 2.54c0.36,0.36 0.44,0.92 0.18,1.36 -0.8,1.38 -1.43,2.89 -1.84,4.43 -0.09,0.52 -0.55,0.92 -1.1,0.92l-3.61 0 0 3.72zm-7.25 -36.04l0 38.25 21.74 0c0.61,0 1.11,0.5 1.11,1.12l0 0.78 12.82 0 0 -0.78c0,-0.62 0.5,-1.12 1.11,-1.12l21.74 0 0 -38.25c0,-0.98 -0.79,-1.77 -1.77,-1.77l-54.98 0c-0.98,0 -1.77,0.79 -1.77,1.77zm-0.21 45.19l58.69 0c3.18,0 6.73,-1.2 7.36,-4.71l-27.94 0 0 0.78c0,0.62 -0.5,1.11 -1.12,1.11l-15.04 0c-0.62,0 -1.12,-0.49 -1.12,-1.11l0 -0.78 -27.95 0c0.59,3.5 3.9,4.71 7.12,4.71z"/></g></g></svg>