<svg width="150px" height="150px" xmlns="http://www.w3.org/2000/svg" xmlns:xlink="http://www.w3.org/1999/xlink" xml:space="preserve" style="shape-rendering:geometricPrecision;text-rendering:geometricPrecision;image-rendering:optimizeQuality;" viewBox="0 0 6.82666 8.533325000000001" x="0px" y="0px" fill-rule="evenodd" clip-rule="evenodd"><defs><style type="text/css">
   
    .fil1 {fill:none}
    .fil0 {fill:black}
   
  </style></defs><g><g><path class="fil0" d="M6.40687 5.02319l-5.98707 0c-0.038748,0 -0.0701575,-0.0314094 -0.0701575,-0.0701535l0 -3.50883c0,-0.0387402 0.0314094,-0.0701496 0.0701575,-0.0701496l0.772929 -7.87402e-006c0.0387441,0 0.0701575,0.0314252 0.0701575,0.0701654 3.93701e-006,0.0387402 -0.0314134,0.0701575 -0.0701575,0.0701575l-0.702772 -7.87402e-006 0 3.36852 5.84676 0 0 -3.36852 -0.70278 0c-0.038748,0 -0.0701614,-0.0314016 -0.0701614,-0.0701496 3.93701e-006,-0.038748 0.0314094,-0.0701575 0.0701575,-0.0701575l0.772941 -7.87402e-006c0.0387441,0 0.0701417,0.0314252 0.0701417,0.0701654l0 3.50882c0,0.0387362 -0.0314016,0.0701614 -0.0701417,0.0701575z"/><path class="fil0" d="M2.7999 5.72248c-0.0387441,0 -0.0701457,-0.0314291 -0.0701457,-0.0701575l0 -0.699287c0,-0.038752 0.0314016,-0.0701535 0.0701457,-0.0701535 0.0387559,-3.93701e-006 0.0701575,0.0314134 0.0701575,0.0701575l0 0.699283c0,0.0387205 -0.0314016,0.0701575 -0.0701575,0.0701575zm1.22687 0c-0.0387559,0 -0.0701575,-0.0314291 -0.0701575,-0.0701575l0 -0.699287c0,-0.038752 0.0314016,-0.0701535 0.0701575,-0.0701535 0.038748,-3.93701e-006 0.0701457,0.0314134 0.0701457,0.0701575l0 0.699283c0,0.0387205 -0.0314016,0.0701575 -0.0701457,0.0701575z"/><path class="fil0" d="M2.38891 5.72248c-0.137197,0 -0.248819,0.111693 -0.248819,0.248839 0,0.137146 0.111622,0.248839 0.248819,0.248839l2.04887 0c0.137197,0 0.248815,-0.111693 0.248815,-0.248839 0,-0.13715 -0.111622,-0.248839 -0.248819,-0.248839l-2.04886 0zm2.04887 0.637992l-2.04887 0c-0.214563,0 -0.389134,-0.174539 -0.389134,-0.389154 0,-0.214626 0.174567,-0.389154 0.389134,-0.389154l2.04887 0c0.214563,0 0.38913,0.174539 0.38913,0.389154 0,0.21461 -0.174567,0.389154 -0.38913,0.389154z"/><path class="fil0" d="M1.26289 4.04861l4.30089 0 0 -3.44211 -4.30089 0 0 3.44211zm4.37105 0.140315l-4.4412 0c-0.038752,0 -0.0701654,-0.0314016 -0.0701654,-0.0701457l3.93701e-006 -3.58243c0,-0.038752 0.0314094,-0.0701496 0.0701614,-0.0701496l4.4412 -7.87402e-006c0.0387402,0 0.0701535,0.0314094 0.0701535,0.0701654l3.93701e-006 3.58241c0,0.038752 -0.0314173,0.0701654 -0.0701575,0.0701575z"/><path class="fil0" d="M1.96833 2.16851l0.580075 0.334917 0.580079 -0.334917 0 -0.669787 -0.580079 -0.334906 -0.580075 0.334906 0 0.669787zm0.580075 0.486071c-0.0121181,0 -0.0242244,-0.00312598 -0.0350787,-0.00938583l-0.650232 -0.375425c-0.0217087,-0.0125118 -0.0350787,-0.0356732 -0.0350787,-0.0607441l0 -0.750807c0,-0.0250748 0.0133701,-0.0482165 0.0350787,-0.060752l0.650232 -0.375417c0.0216929,-0.0125354 0.0484567,-0.0125315 0.0701575,0l0.650224 0.375409c0.0217047,0.0125433 0.0350787,0.0356969 0.0350787,0.0607598l0 0.750807c0,0.025063 -0.013374,0.0482323 -0.0350787,0.0607559l-0.650224 0.375413c-0.0108504,0.00625984 -0.0229606,0.0093937 -0.0350787,0.00938583z"/><path class="fil0" d="M4.9285 2.06083c-0.0387441,0 -0.0701614,-0.0313976 -0.0701614,-0.0701496l3.93701e-006 -0.837717 -0.849976 0c-0.038748,0 -0.0701575,-0.0314016 -0.0701575,-0.0701496 0,-0.038748 0.0314094,-0.0701575 0.0701575,-0.0701575l0.920134 -7.87402e-006c0.0387441,0 0.0701535,0.0314213 0.0701535,0.0701654l3.93701e-006 0.907858c0,0.038752 -0.0314134,0.0701654 -0.0701575,0.0701575z"/><path class="fil0" d="M4.55161 2.43772c-0.038748,0 -0.0701457,-0.0314016 -0.0701457,-0.0701496l0 -0.837732 -0.849988 0c-0.038748,0 -0.0701575,-0.0314016 -0.0701575,-0.0701457 0,-0.038748 0.0314094,-0.0701575 0.0701575,-0.0701575l0.920134 -1.1811e-005c0.038748,0 0.0701575,0.0314213 0.0701575,0.0701693l0 0.90787c0,0.038752 -0.0314134,0.0701693 -0.0701575,0.0701575z"/><path class="fil0" d="M4.65247 3.64247l-1.16551 0c-0.038748,0 -0.0701614,-0.0314016 -0.0701614,-0.0701614l3.93701e-006 -0.322429 -1.24259 0c-0.0387441,0 -0.0701457,-0.0314016 -0.0701457,-0.0701575 0,-0.038752 0.0314016,-0.0701496 0.0701457,-0.0701496l1.31275 -7.87402e-006c0.0387441,0 0.0701535,0.0314134 0.0701535,0.0701575l3.93701e-006 0.322433 1.09535 0c0.038748,0 0.0701575,0.0314094 0.0701575,0.0701535 0,0.0387559 -0.0314134,0.0701732 -0.0701575,0.0701614z"/><path class="fil0" d="M6.40687 4.59789l-5.98707 0c-0.038748,0 -0.0701575,-0.0314134 -0.0701575,-0.0701575 0,-0.038752 0.0314094,-0.0701575 0.0701575,-0.0701575l5.98707 0c0.0387441,0 0.0701417,0.0314134 0.0701417,0.0701575 0,0.0387362 -0.0314016,0.0701575 -0.0701417,0.0701575z"/></g></g><rect class="fil1" width="6.82666" height="6.82666"/><text x="0" y="21.82666" fill="#000000" font-size="5px" font-weight="bold" font-family="'Helvetica Neue', Helvetica, Arial-Unicode, Arial, Sans-serif">Created by Circlon Tech</text><text x="0" y="26.82666" fill="#000000" font-size="5px" font-weight="bold" font-family="'Helvetica Neue', Helvetica, Arial-Unicode, Arial, Sans-serif">from the Noun Project</text></svg>