<svg width="150px" height="150px" xmlns="http://www.w3.org/2000/svg" xmlns:xlink="http://www.w3.org/1999/xlink" version="1.1" x="0px" y="0px" viewBox="0 0 64 80" enable-background="new 0 0 64 64" xml:space="preserve"><g display="none"><rect x="63.992" y="-356" display="inline" fill="#000000" width="20" height="430"/><rect x="38.492" y="-521.5" transform="matrix(1.067751e-10 -1 1 1.067751e-10 58.4922 38.4922)" display="inline" fill="#000000" width="20" height="1023"/><rect x="-390.027" y="-373.668" display="inline" fill="#000000" width="947.424" height="496.184"/></g><g display="none"><g display="inline"><g><path d="M24.741,27.602c-0.5,0.25-1.625,0.517-3.089,0.517c-4.158,0-6.301-2.589-6.301-6.016c0-4.105,2.927-6.39,6.568-6.39     c1.411,0,2.481,0.285,2.964,0.535l-0.554,2.16c-0.552-0.233-1.32-0.446-2.285-0.446c-2.16,0-3.837,1.304-3.837,3.981     c0,2.41,1.427,3.927,3.856,3.927c0.821,0,1.731-0.179,2.266-0.394L24.741,27.602z"/></g><g><path d="M29.334,24.853l-0.858,3.087h-2.82l3.677-12.031h3.57l3.731,12.031h-2.927l-0.929-3.087H29.334z M32.386,22.818     l-0.75-2.554c-0.214-0.714-0.429-1.606-0.608-2.32h-0.035c-0.179,0.714-0.358,1.624-0.554,2.32l-0.714,2.554H32.386z"/></g><g><path d="M38.069,16.07c0.999-0.16,2.302-0.25,3.676-0.25c2.285,0,3.767,0.411,4.927,1.286c1.25,0.927,2.035,2.408,2.035,4.533     c0,2.302-0.839,3.891-1.999,4.874c-1.267,1.052-3.196,1.552-5.552,1.552c-1.41,0-2.41-0.089-3.087-0.179V16.07z M40.8,25.888     c0.231,0.054,0.606,0.054,0.945,0.054c2.464,0.017,4.071-1.339,4.071-4.214c0.017-2.499-1.446-3.82-3.785-3.82     c-0.608,0-1,0.054-1.231,0.108V25.888z"/></g></g><g display="inline"><g><path d="M49.621,2C52.587,2,55,4.413,55,7.379v49.241C55,59.587,52.587,62,49.621,62H14.379C11.413,62,9,59.587,9,56.621V7.379     C9,4.413,11.413,2,14.379,2H49.621 M49.621,0H14.379C10.304,0,7,3.304,7,7.379v49.241C7,60.696,10.304,64,14.379,64h35.241     C53.696,64,57,60.696,57,56.621V7.379C57,3.304,53.696,0,49.621,0L49.621,0z"/></g></g><g display="inline"><g><g><line fill="none" stroke="#000000" stroke-width="2" stroke-miterlimit="10" x1="14.293" y1="41.428" x2="49.578" y2="41.428"/></g><g><line fill="none" stroke="#000000" stroke-width="2" stroke-miterlimit="10" x1="14.293" y1="46.332" x2="49.578" y2="46.332"/></g><g><line fill="none" stroke="#000000" stroke-width="2" stroke-miterlimit="10" x1="14.293" y1="51.235" x2="49.578" y2="51.235"/></g></g></g></g><g display="none"><g display="inline"><g><path d="M24.741,27.602c-0.5,0.25-1.625,0.517-3.089,0.517c-4.158,0-6.301-2.589-6.301-6.016c0-4.105,2.927-6.39,6.568-6.39     c1.411,0,2.481,0.285,2.964,0.535l-0.554,2.16c-0.552-0.233-1.32-0.446-2.285-0.446c-2.16,0-3.837,1.304-3.837,3.981     c0,2.41,1.427,3.927,3.856,3.927c0.821,0,1.731-0.179,2.266-0.394L24.741,27.602z"/></g><g><path d="M29.334,24.853l-0.858,3.087h-2.82l3.677-12.031h3.57l3.731,12.031h-2.927l-0.929-3.087H29.334z M32.386,22.818     l-0.75-2.554c-0.214-0.714-0.429-1.606-0.608-2.32h-0.035c-0.179,0.714-0.358,1.624-0.554,2.32l-0.714,2.554H32.386z"/></g><g><path d="M38.069,16.07c0.999-0.16,2.302-0.25,3.676-0.25c2.285,0,3.767,0.411,4.927,1.286c1.25,0.927,2.035,2.408,2.035,4.533     c0,2.302-0.839,3.891-1.999,4.874c-1.267,1.052-3.196,1.552-5.552,1.552c-1.41,0-2.41-0.089-3.087-0.179V16.07z M40.8,25.888     c0.231,0.054,0.606,0.054,0.945,0.054c2.464,0.017,4.071-1.339,4.071-4.214c0.017-2.499-1.446-3.82-3.785-3.82     c-0.608,0-1,0.054-1.231,0.108V25.888z"/></g></g><g display="inline"><g><path d="M49.621,1C53.138,1,56,3.862,56,7.379v49.241C56,60.138,53.138,63,49.621,63H14.379C10.862,63,8,60.138,8,56.621V7.379     C8,3.862,10.862,1,14.379,1H49.621 M49.621,0H14.379C10.304,0,7,3.304,7,7.379v49.241C7,60.696,10.304,64,14.379,64h35.241     C53.696,64,57,60.696,57,56.621V7.379C57,3.304,53.696,0,49.621,0L49.621,0z"/></g></g><g display="inline"><g><g><line fill="none" stroke="#000000" stroke-miterlimit="10" x1="14.293" y1="41.428" x2="49.578" y2="41.428"/></g><g><line fill="none" stroke="#000000" stroke-miterlimit="10" x1="14.293" y1="46.332" x2="49.578" y2="46.332"/></g><g><line fill="none" stroke="#000000" stroke-miterlimit="10" x1="14.293" y1="51.235" x2="49.578" y2="51.235"/></g></g></g></g><g display="none"><g display="inline"><g><path d="M24.741,27.088c-0.5,0.25-1.625,0.517-3.089,0.517c-4.158,0-6.301-2.589-6.301-6.016c0-4.105,2.927-6.39,6.568-6.39     c1.411,0,2.481,0.285,2.964,0.535l-0.554,2.16c-0.552-0.233-1.32-0.446-2.285-0.446c-2.16,0-3.837,1.304-3.837,3.981     c0,2.41,1.427,3.927,3.856,3.927c0.821,0,1.731-0.179,2.266-0.394L24.741,27.088z"/></g><g><path d="M29.334,24.339l-0.858,3.087h-2.82l3.677-12.031h3.57l3.731,12.031h-2.927l-0.929-3.087H29.334z M32.386,22.304     l-0.75-2.554c-0.214-0.714-0.429-1.606-0.608-2.32h-0.035c-0.179,0.714-0.358,1.624-0.554,2.32l-0.714,2.554H32.386z"/></g><g><path d="M38.069,15.556c0.999-0.16,2.302-0.25,3.676-0.25c2.285,0,3.767,0.411,4.927,1.286c1.25,0.927,2.035,2.408,2.035,4.533     c0,2.302-0.839,3.891-1.999,4.874c-1.267,1.052-3.196,1.552-5.552,1.552c-1.41,0-2.41-0.089-3.087-0.179V15.556z M40.8,25.374     c0.231,0.054,0.606,0.054,0.945,0.054c2.464,0.017,4.071-1.339,4.071-4.214c0.017-2.499-1.446-3.82-3.785-3.82     c-0.608,0-1,0.054-1.231,0.108V25.374z"/></g></g><g display="inline"><g><g><path d="M51.121,4C52.984,4,54.5,5.516,54.5,7.379v49.241c0,1.863-1.516,3.379-3.379,3.379H12.879      C11.016,60,9.5,58.484,9.5,56.621V7.379C9.5,5.516,11.016,4,12.879,4H51.121 M51.121,0H12.879C8.804,0,5.5,3.304,5.5,7.379      v49.241C5.5,60.696,8.804,64,12.879,64h38.241c4.075,0,7.379-3.304,7.379-7.379V7.379C58.5,3.304,55.196,0,51.121,0L51.121,0z"/></g></g><g><g><line fill="none" stroke="#000000" stroke-width="4" stroke-miterlimit="10" x1="15" y1="40.699" x2="49" y2="40.699"/></g><g><line fill="none" stroke="#000000" stroke-width="4" stroke-miterlimit="10" x1="15" y1="46.602" x2="49" y2="46.602"/></g><g><line fill="none" stroke="#000000" stroke-width="4" stroke-miterlimit="10" x1="15" y1="52.505" x2="49" y2="52.505"/></g></g></g></g><g display="none"><g display="inline"><g><path d="M24.741,27.602c-0.5,0.25-1.625,0.517-3.089,0.517c-4.158,0-6.301-2.589-6.301-6.016c0-4.105,2.927-6.39,6.568-6.39     c1.411,0,2.481,0.285,2.964,0.535l-0.554,2.16c-0.552-0.233-1.32-0.446-2.285-0.446c-2.16,0-3.837,1.304-3.837,3.981     c0,2.41,1.427,3.927,3.856,3.927c0.821,0,1.731-0.179,2.266-0.394L24.741,27.602z"/></g><g><path d="M29.334,24.853l-0.858,3.087h-2.82l3.677-12.031h3.57l3.731,12.031h-2.927l-0.929-3.087H29.334z M32.386,22.818     l-0.75-2.554c-0.214-0.714-0.429-1.606-0.608-2.32h-0.035c-0.179,0.714-0.358,1.624-0.554,2.32l-0.714,2.554H32.386z"/></g><g><path d="M38.069,16.07c0.999-0.16,2.302-0.25,3.676-0.25c2.285,0,3.767,0.411,4.927,1.286c1.25,0.927,2.035,2.408,2.035,4.533     c0,2.302-0.839,3.891-1.999,4.874c-1.267,1.052-3.196,1.552-5.552,1.552c-1.41,0-2.41-0.089-3.087-0.179V16.07z M40.8,25.888     c0.231,0.054,0.606,0.054,0.945,0.054c2.464,0.017,4.071-1.339,4.071-4.214c0.017-2.499-1.446-3.82-3.785-3.82     c-0.608,0-1,0.054-1.231,0.108V25.888z"/></g></g><g display="inline"><g><path d="M55,2v54.621C55,59.587,52.587,62,49.621,62H9V7.379C9,4.413,11.413,2,14.379,2H55 M57,0H14.379     C10.304,0,7,3.304,7,7.379V64h42.621C53.696,64,57,60.696,57,56.621V0L57,0z"/></g></g><g display="inline"><g><g><line fill="none" stroke="#000000" stroke-width="2" stroke-miterlimit="10" x1="14.293" y1="41.428" x2="49.578" y2="41.428"/></g><g><line fill="none" stroke="#000000" stroke-width="2" stroke-miterlimit="10" x1="14.293" y1="46.332" x2="49.578" y2="46.332"/></g><g><line fill="none" stroke="#000000" stroke-width="2" stroke-miterlimit="10" x1="14.293" y1="51.235" x2="49.578" y2="51.235"/></g></g></g></g><g><g><path d="M21.652,28.119c1.464,0,2.589-0.267,3.089-0.517l-0.411-2.125c-0.535,0.215-1.445,0.394-2.266,0.394    c-2.429,0-3.856-1.517-3.856-3.927c0-2.677,1.677-3.981,3.837-3.981c0.965,0,1.733,0.214,2.285,0.446l0.554-2.16    c-0.483-0.25-1.552-0.535-2.964-0.535c-3.641,0-6.568,2.285-6.568,6.39C15.351,25.531,17.494,28.119,21.652,28.119z"/><path d="M29.334,24.853h3.445l0.929,3.087h2.927L32.904,15.91h-3.57l-3.677,12.031h2.82L29.334,24.853z M30.44,20.265    c0.196-0.696,0.375-1.606,0.554-2.32h0.035c0.179,0.714,0.394,1.606,0.608,2.32l0.75,2.554h-2.66L30.44,20.265z"/><path d="M46.709,26.513c1.16-0.983,1.999-2.571,1.999-4.874c0-2.125-0.785-3.606-2.035-4.533c-1.16-0.875-2.642-1.286-4.927-1.286    c-1.374,0-2.677,0.09-3.676,0.25v11.817c0.677,0.09,1.677,0.179,3.087,0.179C43.513,28.066,45.441,27.566,46.709,26.513z     M40.801,18.016c0.231-0.054,0.624-0.108,1.231-0.108c2.339,0,3.802,1.321,3.785,3.82c0,2.875-1.608,4.231-4.071,4.214    c-0.339,0-0.714,0-0.945-0.054V18.016z"/><path d="M7,7.379V64h42.621C53.696,64,57,60.696,57,56.621V0H14.379C10.304,0,7,3.304,7,7.379z M56,56.621    C56,60.138,53.138,63,49.621,63H8V7.379C8,3.862,10.862,1,14.379,1H56V56.621z"/><rect x="14.293" y="40.929" width="35.285" height="1"/><rect x="14.293" y="45.832" width="35.285" height="1"/><rect x="14.293" y="50.735" width="35.285" height="1"/></g></g><g display="none"><g display="inline"><g><path d="M24.741,27.602c-0.5,0.25-1.625,0.517-3.089,0.517c-4.158,0-6.301-2.589-6.301-6.016c0-4.105,2.927-6.39,6.568-6.39     c1.411,0,2.481,0.285,2.964,0.535l-0.554,2.16c-0.552-0.233-1.32-0.446-2.285-0.446c-2.16,0-3.837,1.304-3.837,3.981     c0,2.41,1.427,3.927,3.856,3.927c0.821,0,1.731-0.179,2.266-0.394L24.741,27.602z"/></g><g><path d="M29.334,24.853l-0.858,3.087h-2.82l3.677-12.031h3.57l3.731,12.031h-2.927l-0.929-3.087H29.334z M32.386,22.818     l-0.75-2.554c-0.214-0.714-0.429-1.606-0.608-2.32h-0.035c-0.179,0.714-0.358,1.624-0.554,2.32l-0.714,2.554H32.386z"/></g><g><path d="M38.069,16.07c0.999-0.16,2.302-0.25,3.676-0.25c2.285,0,3.767,0.411,4.927,1.286c1.25,0.927,2.035,2.408,2.035,4.533     c0,2.302-0.839,3.891-1.999,4.874c-1.267,1.052-3.196,1.552-5.552,1.552c-1.41,0-2.41-0.089-3.087-0.179V16.07z M40.8,25.888     c0.231,0.054,0.606,0.054,0.945,0.054c2.464,0.017,4.071-1.339,4.071-4.214c0.017-2.499-1.446-3.82-3.785-3.82     c-0.608,0-1,0.054-1.231,0.108V25.888z"/></g></g><g display="inline"><g><line fill="none" stroke="#000000" stroke-width="4" stroke-miterlimit="10" x1="14.293" y1="40.428" x2="49.578" y2="40.428"/></g><g><line fill="none" stroke="#000000" stroke-width="4" stroke-miterlimit="10" x1="14.293" y1="46.332" x2="49.578" y2="46.332"/></g><g><line fill="none" stroke="#000000" stroke-width="4" stroke-miterlimit="10" x1="14.293" y1="52.235" x2="49.578" y2="52.235"/></g><g><g><path d="M54.5,4v52.621c0,1.863-1.516,3.379-3.379,3.379H9.5V7.379C9.5,5.516,11.016,4,12.879,4H54.5 M58.5,0H12.879      C8.804,0,5.5,3.304,5.5,7.379V64h45.621c4.075,0,7.379-3.304,7.379-7.379V0L58.5,0z"/></g></g></g></g><g display="none"><g display="inline"><g><path d="M24.741,27.602c-0.5,0.25-1.625,0.517-3.089,0.517c-4.158,0-6.301-2.589-6.301-6.016c0-4.105,2.927-6.39,6.568-6.39     c1.411,0,2.481,0.285,2.964,0.535l-0.554,2.16c-0.552-0.233-1.32-0.446-2.285-0.446c-2.16,0-3.837,1.304-3.837,3.981     c0,2.41,1.427,3.927,3.856,3.927c0.821,0,1.731-0.179,2.266-0.394L24.741,27.602z"/></g><g><path d="M29.334,24.853l-0.858,3.087h-2.82l3.677-12.031h3.57l3.731,12.031h-2.927l-0.929-3.087H29.334z M32.386,22.818     l-0.75-2.554c-0.214-0.714-0.429-1.606-0.608-2.32h-0.035c-0.179,0.714-0.358,1.624-0.554,2.32l-0.714,2.554H32.386z"/></g><g><path d="M38.069,16.07c0.999-0.16,2.302-0.25,3.676-0.25c2.285,0,3.767,0.411,4.927,1.286c1.25,0.927,2.035,2.408,2.035,4.533     c0,2.302-0.839,3.891-1.999,4.874c-1.267,1.052-3.196,1.552-5.552,1.552c-1.41,0-2.41-0.089-3.087-0.179V16.07z M40.8,25.888     c0.231,0.054,0.606,0.054,0.945,0.054c2.464,0.017,4.071-1.339,4.071-4.214c0.017-2.499-1.446-3.82-3.785-3.82     c-0.608,0-1,0.054-1.231,0.108V25.888z"/></g></g><g display="inline"><g><line fill="none" stroke="#000000" stroke-miterlimit="10" x1="7" y1="58.727" x2="7" y2="5.273"/><line fill="none" stroke="#000000" stroke-miterlimit="10" x1="57" y1="5.273" x2="57" y2="58.727"/></g><g><g><g><path d="M58.754,1v3.582H5.246V1H58.754 M59.754,0H4.246v5.582h55.507V0L59.754,0z"/></g></g><g><g><path d="M58.754,59.418V63H5.246v-3.582H58.754 M59.754,58.418H4.246V64h55.507V58.418L59.754,58.418z"/></g></g></g></g><g display="inline"><g><g><line fill="none" stroke="#000000" stroke-miterlimit="10" x1="14.293" y1="39.428" x2="49.578" y2="39.428"/></g><g><line fill="none" stroke="#000000" stroke-miterlimit="10" x1="14.293" y1="44.332" x2="49.578" y2="44.332"/></g><g><line fill="none" stroke="#000000" stroke-miterlimit="10" x1="14.293" y1="49.235" x2="49.578" y2="49.235"/></g></g></g></g><g display="none"><g display="inline"><path d="M24.741,27.602c-0.5,0.25-1.625,0.517-3.089,0.517c-4.158,0-6.301-2.589-6.301-6.016c0-4.105,2.927-6.39,6.568-6.39    c1.411,0,2.481,0.285,2.964,0.535l-0.554,2.16c-0.552-0.233-1.32-0.446-2.285-0.446c-2.16,0-3.837,1.304-3.837,3.981    c0,2.41,1.427,3.927,3.856,3.927c0.821,0,1.731-0.179,2.266-0.394L24.741,27.602z"/><path d="M29.334,24.853l-0.858,3.087h-2.82l3.677-12.031h3.57l3.731,12.031h-2.927l-0.929-3.087H29.334z M32.386,22.818    l-0.75-2.554c-0.214-0.714-0.429-1.606-0.608-2.32h-0.035c-0.179,0.714-0.358,1.624-0.554,2.32l-0.714,2.554H32.386z"/><path d="M38.069,16.07c0.999-0.16,2.302-0.25,3.676-0.25c2.285,0,3.767,0.411,4.927,1.286c1.25,0.927,2.035,2.408,2.035,4.533    c0,2.302-0.839,3.891-1.999,4.874c-1.267,1.052-3.196,1.552-5.552,1.552c-1.41,0-2.41-0.089-3.087-0.179V16.07z M40.8,25.888    c0.231,0.054,0.606,0.054,0.945,0.054c2.464,0.017,4.071-1.339,4.071-4.214c0.017-2.499-1.446-3.82-3.785-3.82    c-0.608,0-1,0.054-1.231,0.108V25.888z"/></g><g display="inline"><g><line fill="none" stroke="#000000" stroke-width="4" stroke-miterlimit="10" x1="6.5" y1="61.517" x2="6.5" y2="2.483"/><line fill="none" stroke="#000000" stroke-width="4" stroke-miterlimit="10" x1="57.5" y1="2.483" x2="57.5" y2="61.517"/></g><g><line fill="none" stroke="#000000" stroke-width="4" stroke-miterlimit="10" x1="64" y1="2" x2="0" y2="2"/><line fill="none" stroke="#000000" stroke-width="4" stroke-miterlimit="10" x1="64" y1="62" x2="0" y2="62"/></g><g><line fill="none" stroke="#000000" stroke-width="4" stroke-miterlimit="10" x1="14.293" y1="38.428" x2="49.578" y2="38.428"/></g><g><line fill="none" stroke="#000000" stroke-width="4" stroke-miterlimit="10" x1="14.293" y1="44.332" x2="49.578" y2="44.332"/></g><g><line fill="none" stroke="#000000" stroke-width="4" stroke-miterlimit="10" x1="14.293" y1="50.235" x2="49.578" y2="50.235"/></g></g></g></svg>